<?xml version="1.0" encoding="UTF-8"?>
<!DOCTYPE svg PUBLIC "-//W3C//DTD SVG 1.1//EN" "http://www.w3.org/Graphics/SVG/1.1/DTD/svg11.dtd">
<!-- Creator: CorelDRAW -->
<svg xmlns="http://www.w3.org/2000/svg" xml:space="preserve" width="8.4666mm" height="8.4666mm" version="1.1" style="shape-rendering:geometricPrecision; text-rendering:geometricPrecision; image-rendering:optimizeQuality; fill-rule:evenodd; clip-rule:evenodd"
viewBox="0 0 846.66 846.66"
 xmlns:xlink="http://www.w3.org/1999/xlink"
 xmlns:xodm="http://www.corel.com/coreldraw/odm/2003">
 <defs>
  <style type="text/css">
   <![CDATA[
    .fil0 {fill:black}
   ]]>
  </style>
 </defs>
 <g id="Camada_x0020_1">
  <metadata id="CorelCorpID_0Corel-Layer"/>
  <path class="fil0" d="M23.9 179.73l0 268.99c0,24.23 3.24,45 10.46,62.9 10.04,24.9 13.14,26.17 27.95,45.41 5.13,6.67 11.95,11.77 18.8,16.94 47.16,35.59 94.08,28.99 151.59,28.99 23.71,0 32.42,-37.12 6.32,-45.82 -18.42,-6.14 -75.64,6.52 -109.18,-9.32 -19.35,-9.14 -31.74,-18.67 -43.06,-35.95 -10.83,-16.52 -15.85,-36.67 -15.85,-63.15l0 -265.23c0,-15.9 1.92,-30.87 5.84,-43.08 4.65,-14.52 10.05,-21.04 18.85,-31.93 13.34,-16.52 38.27,-32.21 67.48,-32.21l521.06 0c34.2,0 75.73,27.99 89.52,60.96 23.47,56.12 -13.78,121.5 32.75,121.5 6.67,0 14.33,-4.81 17.38,-8.95 8,-10.88 5.19,-51.12 5.19,-68.17 0,-62.14 -31.18,-109.76 -84.01,-136.08 -15.07,-7.5 -37.6,-16.29 -58.95,-16.29l-524.82 0c-72.87,0 -137.32,63.52 -137.32,150.49zm675.31 560.55c0,-18.37 16.17,-37.62 31.97,-37.62 12.99,0 21.88,-0.7 33.5,11.65 13.13,13.98 13.13,36.08 0,50.06 -15.22,16.18 -42.08,15.72 -55.61,-0.1 -5,-5.84 -9.86,-18.18 -9.86,-23.99zm0 -218.2c0,-8.79 4.77,-19.5 9.02,-24.84 19.12,-24.03 66.22,-14.26 66.22,24.84 0,10.34 -4.46,18.43 -9.77,24.09 -24.43,25.97 -65.47,5.93 -65.47,-24.09zm-47.03 -1.88l2.2 14.99c-8.64,1.99 -113,66.38 -120.71,71.54 -12.73,-6.74 -24.15,-13.69 -36.83,-21.49l-92.6 -56c-5.68,-3.45 -13.06,-9.04 -21.05,-9.04 -12.55,0 -22.58,9.78 -22.58,26.33 0,16.59 38.73,34.41 58.92,46.42 22.76,13.54 43.89,27.82 67.11,40.11 -3.54,4.84 -86.11,53.74 -98.62,61.26 -18.84,11.33 -27.41,13.21 -27.41,32.8 0,11.92 11.99,20.69 24.46,20.69 10.2,0 128.92,-75.42 142.59,-83.36 5.09,-2.96 3.61,-2.94 7.98,-1.43l116.54 69.74c0,26.38 8.81,48.89 22.06,62.59 57.75,59.7 147.23,16.64 147.23,-56.95 0,-43.16 -37.74,-82.77 -80.88,-82.77 -17.1,0 -31.4,1.84 -45.57,10.87 -7.52,4.78 -21.72,14.33 -24.03,22.99 -6.39,-3.38 -88.28,-51.12 -92.17,-56.43l95.93 -56.43c19.26,28.76 68.11,34.6 99.12,20.11 48.3,-22.57 65.52,-92.15 24.58,-132.52 -28.42,-28.03 -63.97,-35.52 -99.94,-18.08 -17.34,8.41 -30.21,23.64 -38.21,40.8 -2.42,5.19 -9.29,26.36 -8.12,33.26zm-282.16 -114.75l0 -180.58c14.84,9.94 109.32,84.58 116.62,86.53 -0.73,8.78 0.67,3.9 -12.37,13.96l-73.89 57.78c-5.22,4.17 -9.58,7.1 -14.88,11.46 -6.84,5.63 -9.75,9.32 -15.48,10.85zm-47.03 -188.1l0 193.75c0,26.96 23.64,50.74 49.43,45.82 15.17,-2.89 21.82,-9.96 31.72,-17.35l112.07 -87.32c16.23,-13.47 17.46,-26.79 17.46,-44.61 0,-21.03 -19.14,-32.23 -31.71,-41.66l-85.45 -65.03c-18.94,-14.21 -30.33,-26.87 -52.13,-26.87 -10.52,0 -23.49,7.18 -28.55,12.84 -4.98,5.57 -12.84,20.25 -12.84,30.43z"/>
 </g>
</svg>
